<?xml version="1.0" standalone="no"?>
<!DOCTYPE svg PUBLIC "-//W3C//DTD SVG 20010904//EN"
 "http://www.w3.org/TR/2001/REC-SVG-20010904/DTD/svg10.dtd">
<svg version="1.0" xmlns="http://www.w3.org/2000/svg"
 width="240.000000pt" height="240.000000pt" viewBox="0 0 240.000000 240.000000"
 preserveAspectRatio="xMidYMid meet">

<g transform="translate(0.000000,240.000000) scale(0.100000,-0.100000)"
fill="#000000" stroke="none">
<path d="M1000 2394 c-19 -2 -78 -9 -130 -15 -264 -30 -495 -108 -597 -202
-79 -73 -73 5 -73 -977 0 -982 -6 -904 73 -977 101 -93 308 -164 602 -205 118
-17 532 -17 650 0 294 41 501 112 602 205 79 73 73 -5 73 977 0 982 6 904 -73
977 -97 90 -294 159 -560 199 -97 14 -491 27 -567 18z m558 -118 c264 -39 491
-125 532 -201 18 -35 0 -66 -60 -105 -278 -178 -976 -224 -1435 -94 -163 46
-295 124 -295 174 0 49 131 127 292 174 92 26 229 51 363 66 120 13 472 5 603
-14z m-1183 -422 c111 -58 289 -106 500 -136 120 -17 532 -17 655 1 208 28
381 76 495 135 33 17 63 32 68 34 4 2 7 -93 7 -210 l0 -214 -32 -31 c-18 -18
-67 -48 -108 -67 -379 -178 -1141 -178 -1520 0 -41 19 -90 49 -107 67 l-33 31
0 214 c0 117 3 212 8 210 4 -2 34 -17 67 -34z m40 -589 c288 -128 822 -169
1231 -95 184 33 352 89 426 141 l28 20 0 -215 0 -214 -26 -31 c-53 -63 -240
-133 -464 -173 -111 -20 -157 -23 -410 -23 -253 0 -299 3 -410 23 -224 40
-411 110 -464 173 l-26 31 0 214 0 215 28 -20 c15 -10 55 -31 87 -46z m146
-619 c47 -13 143 -35 215 -48 116 -21 159 -23 424 -23 265 0 308 2 424 23 175
32 284 64 389 116 l87 43 0 -213 0 -212 -31 -31 c-112 -113 -495 -201 -869
-201 -374 0 -757 88 -869 201 l-31 31 0 212 0 213 88 -43 c48 -24 126 -54 173
-68z"/>
</g>
</svg>
