<?xml version="1.0" standalone="no"?>
<!DOCTYPE svg PUBLIC "-//W3C//DTD SVG 20010904//EN"
 "http://www.w3.org/TR/2001/REC-SVG-20010904/DTD/svg10.dtd">
<svg version="1.0" xmlns="http://www.w3.org/2000/svg"
 width="294.000000pt" height="270.000000pt" viewBox="0 0 294.000000 270.000000"
 preserveAspectRatio="xMidYMid meet">

<g transform="translate(0.000000,270.000000) scale(0.100000,-0.100000)"
fill="#000000" stroke="none">
<path d="M0 1350 l0 -1350 1470 0 1470 0 0 1350 0 1350 -1470 0 -1470 0 0
-1350z m1755 1087 c-21 -11 -19 -44 3 -51 10 -3 6 -4 -8 -3 -18 2 -25 8 -25
24 0 11 -3 24 -7 28 -4 4 -2 13 5 20 9 9 16 9 29 1 15 -9 15 -12 3 -19z m152
13 c17 0 27 -7 30 -20 5 -19 6 -20 19 -3 19 25 16 5 -4 -37 -9 -19 -26 -36
-37 -38 -19 -4 -19 -3 -1 10 25 19 14 78 -15 78 -13 0 -19 -7 -19 -24 0 -13 6
-27 13 -29 6 -3 2 -6 -9 -6 -18 -1 -23 6 -26 34 -4 33 12 69 20 45 2 -5 15
-10 29 -10z m-737 -13 c0 -13 5 -28 12 -35 9 -9 9 -12 0 -12 -7 0 -12 -8 -12
-18 0 -19 -18 -42 -33 -42 -5 0 -5 6 1 13 18 21 25 86 12 102 -10 12 -9 15 4
15 10 0 16 -8 16 -23z m72 -12 c4 -16 4 -32 -1 -35 -5 -3 -10 -14 -12 -24 -2
-11 -10 -21 -17 -24 -11 -3 -12 0 -2 18 7 12 10 40 8 61 -4 45 12 47 24 4z
m61 3 c3 -18 1 -37 -4 -42 -5 -6 -9 -18 -9 -28 0 -10 -7 -18 -16 -18 -12 0
-14 3 -6 13 16 19 22 80 10 94 -8 10 -7 13 5 13 9 0 17 -12 20 -32z m-193 -26
c0 -20 -7 -46 -15 -56 -21 -28 -30 -12 -10 18 12 18 15 36 11 57 -3 18 -2 28
4 24 6 -3 10 -23 10 -43z m526 37 c3 -6 1 -16 -5 -22 -8 -8 -11 -8 -11 2 0 7
-4 9 -10 6 -5 -3 -10 -15 -10 -25 0 -10 -5 -22 -11 -26 -7 -4 -10 5 -7 27 3
40 38 64 54 38z m62 -2 c6 -7 9 -23 5 -36 -8 -30 -60 -27 -55 4 7 47 27 60 50
32z m137 -22 c0 -21 -5 -31 -19 -33 -26 -5 -40 12 -32 43 5 20 12 26 29 23 17
-2 22 -10 22 -33z m-405 18 c-34 -13 -38 -40 -7 -53 21 -8 21 -9 -5 -9 -24 -1
-28 3 -28 27 0 34 7 42 34 41 15 0 17 -2 6 -6z m140 -12 c0 -30 -11 -51 -26
-51 -8 0 -14 -7 -14 -15 0 -8 -5 -15 -11 -15 -8 0 -9 11 -5 31 3 17 6 40 6 50
0 14 7 19 25 19 18 0 25 -5 25 -19z m-521 -41 c-4 -8 -10 -23 -13 -32 -3 -10
-11 -18 -18 -18 -9 0 -9 3 0 12 7 7 12 26 12 43 0 18 3 35 7 39 11 11 21 -27
12 -44z m974 26 c9 3 17 1 17 -4 0 -6 -9 -14 -20 -17 -11 -3 -20 -13 -20 -21
0 -8 -4 -14 -10 -14 -11 0 -12 15 -3 48 3 14 9 19 13 13 3 -7 14 -9 23 -5z
m-1044 -52 c-20 -38 -30 -28 -12 12 10 19 19 30 21 24 3 -7 -1 -23 -9 -36z
m379 19 c-2 -10 -12 -19 -23 -20 -11 -2 -14 0 -7 3 6 3 12 12 12 20 0 8 5 14
11 14 6 0 9 -8 7 -17z m132 7 c0 -5 -7 -10 -15 -10 -8 0 -15 5 -15 10 0 6 7
10 15 10 8 0 15 -4 15 -10z m-575 -39 c-3 -6 -11 -11 -17 -11 -6 0 -6 6 2 15
14 17 26 13 15 -4z m1143 -95 c-13 -16 -9 -36 8 -36 12 0 15 7 12 30 -5 32 6
41 16 14 9 -22 -11 -54 -34 -54 -16 0 -20 7 -20 34 0 19 3 43 7 53 6 16 8 15
14 -7 3 -14 2 -29 -3 -34z m82 39 c0 -8 -4 -15 -10 -15 -5 0 -10 7 -10 15 0 8
5 15 10 15 6 0 10 -7 10 -15z m17 -7 c-3 -8 -6 -5 -6 6 -1 11 2 17 5 13 3 -3
4 -12 1 -19z m60 10 c5 -7 7 -37 5 -65 -3 -47 -6 -53 -25 -52 -17 1 -18 2 -4
6 13 4 17 15 17 58 0 33 -5 55 -12 58 -8 4 -9 6 -2 6 6 1 16 -5 21 -11z m-545
-48 c3 -47 1 -50 -20 -50 -21 0 -22 1 -8 16 19 18 21 70 4 77 -8 4 -7 6 4 6
12 1 17 -10 20 -49z m188 35 c0 -8 -4 -15 -10 -15 -5 0 -10 7 -10 15 0 8 5 15
10 15 6 0 10 -7 10 -15z m30 6 c0 -6 -4 -13 -10 -16 -5 -3 -10 1 -10 9 0 9 5
16 10 16 6 0 10 -4 10 -9z m-979 -24 c-14 -17 -17 -55 -7 -84 8 -26 -8 -32
-18 -7 -11 28 -6 69 10 92 9 13 18 21 21 18 3 -3 1 -12 -6 -19z m59 8 c0 -8
-4 -15 -10 -15 -5 0 -7 7 -4 15 4 8 8 15 10 15 2 0 4 -7 4 -15z m64 7 c-13 -8
-23 -102 -12 -102 5 0 8 -4 8 -10 0 -5 -7 -10 -16 -10 -14 0 -16 8 -10 46 3
26 6 55 6 65 0 12 7 19 18 19 11 0 13 -3 6 -8z m72 -47 c-7 -34 -34 -54 -46
-34 -12 18 1 51 22 56 10 3 18 13 19 22 0 11 2 12 6 3 3 -7 2 -28 -1 -47z
m842 27 c-19 -4 -26 -42 -8 -42 6 0 10 -4 10 -10 0 -16 -27 -12 -34 5 -3 8 -3
22 0 30 4 8 1 15 -5 15 -8 0 -8 4 1 14 10 11 18 11 33 3 18 -10 18 -11 3 -15z
m-1086 -27 c-4 -40 -7 -45 -28 -45 -18 0 -24 5 -24 22 0 19 35 66 50 67 3 1 4
-19 2 -44z m352 12 c-16 -9 -19 -37 -4 -37 6 0 10 -5 10 -11 0 -24 -25 -1 -31
29 -7 36 7 57 26 39 10 -10 10 -14 -1 -20z m206 13 c0 -4 -7 -10 -15 -14 -21
-8 -19 -34 3 -39 13 -4 13 -5 -4 -6 -17 -1 -23 6 -27 32 -2 17 0 35 6 39 12 7
37 -1 37 -12z m597 9 c5 -5 8 -21 5 -35 -3 -17 -11 -24 -28 -24 -30 0 -31 23
-1 38 18 9 19 11 4 11 -10 1 -15 6 -12 11 8 13 18 13 32 -1z m-532 -10 c13
-20 -4 -59 -26 -59 -25 0 -34 22 -19 49 12 23 35 28 45 10z m68 -10 c-3 -11
-15 -25 -27 -29 -21 -9 -20 -9 2 -9 34 -1 25 -36 -8 -36 -21 0 -25 4 -22 25 6
59 12 70 36 70 20 0 23 -4 19 -21z m70 0 c-3 -11 -15 -24 -26 -28 -20 -8 -20
-8 2 -14 31 -8 22 -31 -13 -35 -27 -3 -27 -3 -21 40 8 54 11 58 40 58 19 0 22
-4 18 -21z m127 1 c0 -13 -7 -20 -20 -20 -27 0 -25 -17 3 -23 19 -5 19 -5 -3
-4 -41 3 -41 67 0 67 13 0 20 -7 20 -20z m-950 -25 c0 -19 -5 -35 -10 -35 -6
0 -8 11 -4 25 4 15 2 25 -5 25 -6 0 -11 -11 -11 -25 0 -14 -4 -25 -10 -25 -13
0 -13 26 0 51 18 32 40 23 40 -16z m368 12 c4 -21 -15 -47 -34 -47 -8 0 -14 9
-14 20 0 11 7 20 15 20 8 0 15 5 15 11 0 6 -7 8 -16 5 -9 -3 -12 -2 -9 5 10
16 39 6 43 -14z m126 15 c12 -20 -7 -52 -30 -52 -29 0 -32 20 -4 27 25 7 26
20 3 26 -14 4 -13 5 4 6 12 0 24 -3 27 -7z m519 -9 c-7 -2 -21 -2 -30 0 -10 3
-4 5 12 5 17 0 24 -2 18 -5z m-463 -7 c0 -2 -7 -6 -15 -10 -8 -3 -15 -1 -15 4
0 6 7 10 15 10 8 0 15 -2 15 -4z m463 -13 c-7 -2 -21 -2 -30 0 -10 3 -4 5 12
5 17 0 24 -2 18 -5z m-1073 -29 c0 -2 -9 -4 -21 -4 -11 0 -18 4 -14 10 5 8 35
3 35 -6z m1390 -113 c0 -22 2 -46 5 -54 5 -12 -14 -15 -43 -8 -2 1 4 8 12 17
19 18 21 70 4 77 -8 3 -6 6 5 6 13 1 17 -7 17 -38z m-1466 -25 c-6 -40 -10
-47 -28 -44 -31 4 -31 31 1 66 15 17 28 30 30 28 2 -1 0 -24 -3 -50z m108 4
c3 -47 2 -50 -21 -50 -18 0 -21 3 -13 13 13 16 18 59 9 75 -5 7 -3 12 6 12 11
0 16 -14 19 -50z m242 25 c-12 -18 -15 -37 -11 -68 l6 -42 -15 31 c-14 27 -14
34 0 67 8 20 20 37 26 37 6 0 3 -11 -6 -25z m43 3 c-3 -8 -6 -5 -6 6 -1 11 2
17 5 13 3 -3 4 -12 1 -19z m33 13 c0 -6 -4 -13 -10 -16 -5 -3 -10 1 -10 9 0 9
5 16 10 16 6 0 10 -4 10 -9z m50 -1 c0 -5 -4 -10 -10 -10 -5 0 -10 5 -10 10 0
6 5 10 10 10 6 0 10 -4 10 -10z m107 -12 c-3 -8 -6 -5 -6 6 -1 11 2 17 5 13 3
-3 4 -12 1 -19z m33 13 c0 -6 -4 -13 -10 -16 -5 -3 -10 1 -10 9 0 9 5 16 10
16 6 0 10 -4 10 -9z m44 -7 c14 -38 -1 -104 -25 -104 -5 0 -2 14 7 31 12 25
14 37 5 56 -13 29 -14 33 -2 33 5 0 12 -7 15 -16z m66 -10 c12 -30 4 -68 -18
-86 -14 -11 -15 -10 -8 7 16 38 18 63 7 84 -8 14 -8 21 -1 21 6 0 15 -12 20
-26z m113 9 c-5 -13 -2 -15 11 -10 22 9 32 -17 18 -49 -12 -25 -36 -32 -47
-14 -9 14 4 90 16 90 4 0 5 -8 2 -17z m577 7 c0 -5 -9 -10 -20 -10 -16 0 -20
-7 -20 -31 0 -27 3 -31 21 -26 16 4 18 3 9 -9 -9 -10 -17 -11 -31 -3 -22 11
-26 58 -7 77 15 15 48 16 48 2z m-1356 -9 c3 -5 -3 -11 -14 -14 -24 -6 -28
-47 -5 -47 8 0 15 -4 15 -10 0 -22 -40 -10 -46 14 -10 41 31 88 50 57z m1683
-20 c-8 -22 -8 -36 1 -55 6 -14 8 -26 3 -26 -5 0 -12 7 -15 16 -13 33 -3 94
14 94 5 0 3 -13 -3 -29z m-739 -7 c2 -15 1 -16 -6 -5 -12 18 -32 6 -32 -20 0
-10 -5 -19 -10 -19 -13 0 -1 52 14 62 16 11 31 4 34 -18z m62 6 c8 -15 8 -21
-2 -24 -39 -13 -42 -14 -20 -15 12 -1 22 -6 22 -12 0 -6 -10 -9 -22 -7 -26 3
-36 41 -18 64 17 19 27 18 40 -6z m77 2 c4 -9 8 -8 18 4 17 23 45 11 45 -19 0
-14 -7 -30 -15 -37 -13 -10 -19 -10 -35 5 -16 14 -20 15 -21 4 -1 -8 -5 -3 -9
11 l-8 25 -2 -25 c-2 -24 -3 -23 -10 5 l-8 30 -1 -27 c0 -16 -6 -28 -12 -28
-7 0 -9 9 -5 23 3 12 6 28 6 34 0 17 51 12 57 -5z m95 -9 l4 -28 13 30 c7 17
15 25 18 18 2 -6 -3 -26 -13 -44 -12 -24 -18 -29 -24 -18 -14 26 -21 69 -11
69 5 0 11 -12 13 -27z m103 2 c0 -13 -6 -20 -17 -19 -10 1 -18 -2 -18 -7 0 -5
8 -9 17 -9 13 0 14 -3 5 -12 -8 -8 -15 -8 -27 2 -18 15 -20 41 -3 58 18 18 43
10 43 -13z m213 -13 c3 -30 1 -32 -27 -32 -36 0 -44 28 -11 37 11 3 20 9 20
14 0 5 -7 5 -17 2 -11 -4 -14 -3 -9 6 15 23 41 7 44 -27z m60 31 c-22 -5 -22
-10 -3 -30 20 -19 10 -33 -23 -32 l-27 1 25 7 c24 7 24 8 6 18 -25 14 -14 43
16 42 17 -1 18 -2 6 -6z m70 0 c-22 -6 -23 -12 -1 -28 22 -16 8 -35 -25 -34
-24 2 -24 2 -4 6 25 5 30 23 7 23 -15 0 -21 21 -8 33 3 4 16 6 27 6 17 -1 18
-2 4 -6z m-1742 -19 c-3 -9 -6 -24 -6 -35 0 -12 -7 -19 -20 -19 -11 0 -20 5
-20 10 0 6 7 10 15 10 9 0 15 9 15 25 0 14 5 25 11 25 6 0 8 -7 5 -16z m234
-19 c0 -31 -3 -35 -25 -35 -31 0 -34 29 -5 37 11 3 20 10 20 15 0 6 -7 8 -15
4 -8 -3 -15 -1 -15 4 0 6 9 10 20 10 16 0 20 -7 20 -35z m45 26 c-18 -7 -18
-8 -1 -18 24 -13 14 -43 -14 -43 -12 0 -18 5 -15 10 4 6 11 8 16 5 5 -4 9 -1
9 4 0 6 -4 11 -10 11 -5 0 -10 9 -10 20 0 14 6 20 23 19 20 0 21 -1 2 -8z m65
-1 c-13 -8 -13 -11 -1 -19 19 -13 6 -41 -19 -41 -12 0 -18 5 -15 10 4 6 11 8
16 5 5 -4 9 -1 9 4 0 6 -4 11 -10 11 -5 0 -10 9 -10 20 0 14 7 20 23 20 18 0
19 -2 7 -10z m186 -25 c0 -28 -4 -35 -19 -35 -16 0 -17 3 -7 15 7 8 10 24 7
35 -3 12 0 20 7 20 7 0 12 -14 12 -35z m72 -2 c-1 -37 -1 -37 -5 -5 -2 17 -8
32 -12 32 -5 0 -12 -15 -16 -32 -4 -18 -9 -27 -12 -20 -10 25 7 62 27 62 17 0
20 -6 18 -37z m252 33 c0 -3 -4 -8 -10 -11 -5 -3 -10 -1 -10 4 0 6 5 11 10 11
6 0 10 -2 10 -4z m-18 -58 c-7 -7 -12 -8 -12 -2 0 6 3 14 7 17 3 4 9 5 12 2 2
-3 -1 -11 -7 -17z m138 6 c0 -8 -5 -12 -10 -9 -6 4 -8 11 -5 16 9 14 15 11 15
-7z m53 -89 c21 -7 46 -11 56 -8 13 3 20 -2 24 -17 5 -18 10 -21 35 -15 23 5
31 2 36 -11 4 -10 2 -20 -3 -24 -6 -3 0 -18 14 -35 l24 -30 -6 42 c-4 31 -1
50 12 69 22 35 29 25 9 -15 -12 -24 -13 -38 -6 -61 7 -18 7 -30 1 -32 -5 -2
-2 -22 8 -46 10 -23 23 -40 29 -38 7 3 11 -22 12 -75 l2 -79 -60 0 c-59 0 -60
1 -60 28 0 31 -9 47 -30 55 -11 4 -10 6 4 6 18 1 18 2 2 20 -10 11 -15 24 -12
29 11 18 -44 80 -96 106 -52 26 -122 35 -133 16 -3 -5 -11 -10 -16 -10 -6 0
-7 5 -4 10 9 15 -19 12 -41 -5 -10 -8 -25 -15 -32 -15 -24 0 -74 -42 -68 -56
3 -8 0 -13 -6 -11 -16 3 -57 -99 -58 -140 l0 -33 -60 0 -60 0 0 41 c0 22 -7
47 -15 55 -19 19 -5 58 22 62 13 2 28 19 39 45 19 42 21 46 23 72 0 8 9 15 18
15 23 0 53 29 53 51 0 10 5 21 10 24 6 3 10 -1 10 -9 0 -20 0 -20 41 1 80 41
193 48 282 18z m-1113 -15 c0 -5 -4 -10 -10 -10 -5 0 -10 5 -10 10 0 6 5 10
10 10 6 0 10 -4 10 -10z m490 -24 c0 -33 -21 -66 -41 -66 -5 0 -9 14 -9 31 0
22 5 32 20 36 11 3 20 12 20 19 0 8 2 14 5 14 3 0 5 -15 5 -34z m126 18 c-3
-9 -6 -30 -6 -48 0 -24 -4 -32 -20 -33 -11 -1 -22 3 -26 8 -10 17 5 59 21 59
8 0 15 7 15 15 0 8 5 15 11 15 6 0 8 -7 5 -16z m30 -11 c-10 -10 -19 5 -10 18
6 11 8 11 12 0 2 -7 1 -15 -2 -18z m21 5 c-3 -8 -6 -5 -6 6 -1 11 2 17 5 13 3
-3 4 -12 1 -19z m723 -35 c0 -36 -15 -73 -30 -73 -4 0 -2 14 7 31 15 29 14 42
-3 84 -7 18 -6 18 9 6 10 -8 17 -28 17 -48z m62 45 c0 -7 2 -17 2 -23 1 -5 6
-16 11 -24 5 -10 4 -16 -3 -19 -7 -2 -12 -12 -12 -22 0 -9 -7 -23 -15 -30 -9
-8 -15 -9 -15 -2 0 6 5 14 11 18 7 4 10 27 7 60 -3 30 -1 54 4 54 4 0 9 -6 10
-12z m524 -14 c-3 -9 -6 -31 -6 -50 0 -29 -3 -34 -24 -34 -30 0 -40 14 -32 46
4 15 14 24 26 24 11 0 20 7 20 15 0 8 5 15 11 15 6 0 8 -7 5 -16z m-1981 -34
c0 -23 -4 -30 -20 -30 -15 0 -17 2 -6 9 8 5 12 18 8 30 -3 12 0 21 6 21 7 0
12 -13 12 -30z m69 22 c10 -17 -7 -52 -25 -52 -23 0 -25 28 -3 37 13 5 13 7 2
14 -10 7 -9 9 4 9 9 0 19 -4 22 -8z m124 -10 c2 -8 -6 -16 -19 -19 -22 -6 -22
-7 -3 -14 18 -7 17 -8 -3 -8 -18 -1 -23 5 -23 22 0 13 3 27 7 31 11 10 36 3
41 -12z m40 -7 c7 -14 12 -27 12 -28 0 -1 -11 -3 -25 -3 -21 -2 -24 1 -14 12
6 8 9 21 5 29 -9 26 10 16 22 -10z m22 21 c0 -3 -4 -8 -10 -11 -5 -3 -10 -1
-10 4 0 6 5 11 10 11 6 0 10 -2 10 -4z m58 -18 c2 -9 -4 -22 -13 -30 -9 -7
-23 -20 -32 -28 -15 -14 -16 -12 -10 19 4 18 7 40 7 48 0 20 44 12 48 -9z m53
10 c-1 -5 -1 -18 -1 -31 0 -16 -6 -23 -20 -24 -14 -1 -20 4 -20 18 0 10 7 19
15 19 8 0 15 5 15 11 0 6 -7 8 -16 5 -9 -3 -12 -2 -9 5 7 11 36 9 36 -3z m65
-1 c2 -7 0 -24 -5 -38 -9 -23 -10 -22 -10 11 -1 38 -16 31 -24 -10 -3 -18 -5
-15 -6 13 -1 31 2 37 19 37 11 0 23 -6 26 -13z m124 -7 c0 -14 -7 -20 -22 -20
-22 -1 -23 -1 -4 -15 17 -13 17 -15 4 -15 -23 0 -31 16 -24 46 8 30 46 34 46
4z m1272 -12 c-2 -11 -14 -24 -26 -28 l-21 -9 22 0 c12 -1 24 -5 27 -9 9 -15
-12 -34 -35 -30 -21 3 -24 7 -21 43 5 48 16 65 41 58 13 -3 17 -11 13 -25z
m-312 -18 c5 0 12 9 15 21 4 11 9 18 11 16 6 -6 -17 -57 -27 -57 -9 0 -19 27
-18 48 1 10 4 8 6 -5 2 -13 8 -23 13 -23z m100 10 c0 -16 -5 -30 -11 -30 -5 0
-7 5 -4 10 3 6 -1 10 -10 10 -11 0 -15 -5 -11 -16 3 -8 2 -12 -4 -9 -18 11
-11 35 10 35 25 0 26 17 3 23 -14 4 -12 5 5 6 18 1 22 -4 22 -29z m70 21 c0
-5 -8 -8 -17 -7 -12 1 -20 -9 -24 -29 -6 -29 -7 -29 -8 8 -1 33 2 37 24 37 14
0 25 -4 25 -9z m-1560 -11 c0 -5 -7 -10 -15 -10 -8 0 -15 5 -15 10 0 6 7 10
15 10 8 0 15 -4 15 -10z m1768 -7 c-10 -2 -26 -2 -35 0 -10 3 -2 5 17 5 19 0
27 -2 18 -5z m0 -20 c-10 -2 -26 -2 -35 0 -10 3 -2 5 17 5 19 0 27 -2 18 -5z
m137 -13 c-3 -5 -10 -10 -16 -10 -5 0 -9 5 -9 10 0 6 7 10 16 10 8 0 12 -4 9
-10z m-1929 -103 c8 -4 14 -16 14 -25 0 -14 2 -15 9 -2 6 8 7 18 4 22 -6 11
15 38 29 38 6 0 8 -12 5 -28 -4 -21 -2 -29 9 -29 8 0 14 8 14 17 0 23 26 45
35 30 3 -5 3 -20 0 -31 -5 -13 -3 -19 3 -15 6 3 9 -5 8 -19 -1 -23 -5 -25 -53
-25 -28 0 -55 5 -59 11 -4 8 -9 7 -15 -2 -6 -10 -9 -5 -9 16 0 31 -14 25 -23
-10 -3 -11 -5 1 -6 26 -1 45 10 73 18 47 2 -7 10 -17 17 -21z m-63 -15 c-18
-18 -17 -29 5 -41 15 -9 15 -10 -5 -11 -19 0 -23 5 -23 30 0 17 -4 30 -10 30
-5 0 -10 -7 -10 -15 0 -7 -8 -19 -17 -24 -17 -10 -17 -10 0 -11 24 0 21 -27
-5 -36 -27 -8 -48 18 -48 59 0 16 -4 26 -10 22 -5 -3 -10 -17 -10 -31 0 -14
-4 -23 -9 -20 -14 9 4 61 22 64 13 3 17 -5 18 -35 1 -39 3 -38 13 10 5 22 12
27 36 27 16 0 32 4 35 10 4 6 11 5 19 -2 11 -10 11 -15 -1 -26z m227 23 c0 -8
6 -14 12 -12 16 3 23 -42 9 -56 -8 -8 -11 -3 -11 18 0 31 -15 25 -23 -10 -3
-11 -5 1 -6 28 0 26 4 47 9 47 6 0 10 -7 10 -15z m87 0 c3 -9 -2 -24 -12 -35
-9 -10 -14 -24 -10 -29 3 -6 1 -11 -4 -11 -15 0 -14 33 1 48 8 8 8 15 -2 27
-10 12 -10 15 4 15 9 0 19 -7 23 -15z m626 -12 c-7 -2 -14 -21 -15 -41 l-1
-37 -4 35 c-3 19 -10 38 -16 42 -7 4 1 7 18 7 17 0 24 -3 18 -6z m828 -73
c-11 -25 -11 -25 -8 4 2 35 -18 46 -28 15 -5 -14 -2 -25 6 -31 11 -8 11 -9 -1
-5 -24 6 -18 51 8 62 12 5 23 17 24 25 0 8 3 1 5 -15 2 -17 -1 -42 -6 -55z
m46 58 c-3 -8 -6 -5 -6 6 -1 11 2 17 5 13 3 -3 4 -12 1 -19z m33 7 c0 -8 -4
-15 -10 -15 -5 0 -10 7 -10 15 0 8 5 15 10 15 6 0 10 -7 10 -15z m145 -1 c-14
-11 -16 -18 -7 -21 17 -7 15 -23 -3 -23 -9 0 -16 -10 -16 -27 -2 -28 -2 -28
-6 -3 -3 14 -10 28 -15 31 -13 9 31 59 51 59 13 -1 12 -4 -4 -16z m65 -50 c0
-17 -9 -42 -20 -55 -24 -29 -25 -22 -4 20 13 26 14 38 5 57 -16 35 -13 53 4
30 8 -11 15 -34 15 -52z m-1683 32 c-11 -17 -13 -26 -5 -34 16 -16 -8 -41 -32
-35 -15 4 -18 11 -14 37 9 52 12 56 40 56 25 0 26 -1 11 -24z m121 -8 c-2 -25
-8 -33 -23 -33 -20 0 -31 25 -21 51 3 8 15 14 26 14 18 0 21 -5 18 -32z m66
24 c3 -5 1 -22 -4 -38 l-8 -29 -1 33 c-1 38 -21 34 -21 -4 0 -13 -5 -24 -11
-24 -7 0 -9 9 -5 23 3 12 6 28 6 35 0 13 36 17 44 4z m220 -29 c-5 -19 -3 -24
7 -21 8 3 14 15 13 27 0 11 3 21 8 21 5 0 8 -12 6 -27 -2 -20 -9 -29 -25 -31
-20 -3 -23 1 -23 33 0 22 4 34 10 30 6 -3 7 -18 4 -32z m839 30 c-27 -5 -31
-33 -5 -34 13 0 12 -2 -5 -9 -13 -5 -23 -14 -23 -19 0 -5 10 -12 23 -14 19 -4
18 -4 -5 -6 -23 -1 -28 3 -28 22 0 48 11 67 39 66 23 -2 24 -2 4 -6z m-758
-13 c-18 -7 -19 -8 -2 -15 18 -8 24 -35 6 -35 -5 0 -8 4 -5 9 3 5 -1 11 -9 15
-24 9 -18 36 8 35 21 0 21 -1 2 -9z m155 -8 c0 -14 -2 -15 -10 -2 -11 17 -25
6 -33 -25 -3 -14 -5 -11 -6 10 -1 26 3 31 24 33 18 1 25 -3 25 -16z m60 -18
c0 -31 -3 -35 -22 -32 -29 4 -35 28 -9 35 26 7 27 20 4 26 -14 4 -12 5 5 6 19
1 22 -4 22 -35z m68 14 c2 -10 -1 -25 -7 -35 -8 -14 -9 -10 -4 16 5 26 3 33
-8 29 -8 -3 -17 -18 -20 -34 -6 -28 -7 -28 -8 7 -1 32 2 36 21 35 13 -1 24 -9
26 -18z m261 -2 c0 -6 -4 -20 -9 -31 -8 -19 -9 -19 -9 2 -1 12 -4 29 -7 37 -5
12 -2 15 10 10 9 -3 16 -11 15 -18z m84 2 c7 -20 -11 -58 -27 -58 -22 0 -36
31 -25 52 11 21 45 24 52 6z m65 -25 l-1 -38 -4 33 c-5 40 -25 38 -34 -4 -6
-27 -7 -27 -8 9 -1 33 2 37 24 37 23 0 25 -4 23 -37z m148 26 c3 -6 2 -22 -2
-37 -8 -27 -8 -27 -14 8 -7 35 -9 33 -25 -16 -9 -27 -16 -10 -9 22 6 30 37 44
50 23z m-1281 -29 c-3 -5 -10 -10 -16 -10 -5 0 -9 5 -9 10 0 6 7 10 16 10 8 0
12 -4 9 -10z m1475 -45 c-15 -18 -35 -20 -23 -2 4 6 8 15 9 20 1 4 2 10 3 14
0 4 6 2 13 -5 8 -8 8 -15 -2 -27z m-1851 -73 c-13 -5 -11 -36 4 -51 10 -10 8
-12 -8 -9 -12 2 -21 14 -26 35 -7 37 7 58 26 40 7 -7 9 -13 4 -15z m-166 6 c2
-7 0 -23 -4 -36 -10 -27 -42 -26 -47 1 -7 34 39 65 51 35z m57 -29 c0 -16 -4
-29 -9 -29 -4 0 -6 11 -3 25 2 15 0 25 -7 25 -6 0 -11 -11 -11 -25 0 -14 -5
-25 -10 -25 -13 0 -1 52 14 62 16 11 26 -1 26 -33z m344 28 c11 -10 10 -15 -1
-25 -18 -17 -17 -32 3 -32 8 0 13 -4 9 -10 -11 -18 -33 1 -38 33 -7 46 3 58
27 34z m512 4 c-12 -5 -15 -10 -9 -14 17 -10 287 -6 300 4 7 7 14 6 18 -1 4
-6 62 -10 156 -10 98 0 149 -4 149 -11 0 -5 -5 -7 -12 -3 -7 4 -8 3 -4 -5 4
-6 7 -91 7 -189 -1 -97 2 -182 7 -188 4 -6 14 -14 22 -17 13 -5 12 -6 -1 -6
-11 -1 -18 -14 -23 -38 -9 -58 -7 -113 4 -113 7 0 7 -7 -1 -21 -6 -12 -9 -41
-7 -64 l3 -44 -419 -1 c-379 0 -421 1 -437 16 -11 10 -19 28 -19 41 0 15 -6
23 -16 23 -13 0 -14 3 -5 14 6 7 11 24 12 37 0 13 2 133 5 267 5 218 4 242
-11 242 -12 0 -16 8 -13 33 l3 32 126 -2 c102 -2 129 0 139 12 7 8 20 15 29
14 12 0 12 -2 -3 -8z m-811 -10 c-19 -8 -19 -8 0 -18 16 -9 17 -13 6 -27 -15
-18 -41 -22 -41 -6 0 6 8 10 18 11 10 0 12 3 5 6 -7 2 -13 13 -13 24 0 13 7
19 23 18 20 0 21 -1 2 -8z m135 -6 c0 -9 -6 -12 -15 -9 -10 4 -15 0 -15 -14 0
-12 -4 -24 -10 -27 -11 -7 -14 47 -3 58 12 13 43 7 43 -8z m23 -17 c-4 -22 -3
-29 5 -24 7 4 12 16 12 26 0 10 5 22 10 25 6 4 10 -8 10 -29 0 -32 -3 -36 -25
-36 -22 0 -25 4 -25 35 0 19 4 35 10 35 5 0 7 -13 3 -32z m97 22 c0 -5 -6 -10
-14 -10 -24 0 -30 -22 -11 -37 18 -12 18 -13 -3 -13 -16 0 -22 6 -22 23 0 13
5 28 12 35 15 15 38 16 38 2z m118 -32 c-2 -25 -8 -33 -23 -33 -20 0 -31 25
-21 51 3 8 15 14 26 14 18 0 21 -5 18 -32z m68 23 c5 -5 23 -11 39 -14 24 -3
22 -4 -12 -6 -25 0 -43 4 -46 12 -5 12 -8 6 -22 -39 -9 -28 -16 -9 -9 24 7 32
29 42 50 23z m1188 -6 c-15 -12 -16 -16 -6 -23 11 -8 11 -10 -1 -15 -9 -3 -17
-16 -20 -29 -4 -20 -4 -20 -6 5 0 15 -6 27 -12 27 -6 0 -3 7 5 16 9 8 16 20
16 25 0 5 10 9 22 9 21 0 21 0 2 -15z m57 -34 c-2 -29 2 -47 11 -52 9 -6 2 -9
-20 -9 -30 0 -32 1 -18 16 19 18 21 80 4 88 -7 3 -4 5 7 3 17 -2 19 -9 16 -46z
m79 29 c0 -5 -4 -10 -10 -10 -5 0 -10 5 -10 10 0 6 5 10 10 10 6 0 10 -4 10
-10z m298 -1 c-21 -12 -24 -39 -5 -39 7 0 8 -3 2 -8 -6 -4 -16 -18 -22 -32
-11 -23 -11 -21 -9 17 3 44 20 73 40 73 6 0 3 -5 -6 -11z m-148 -22 c12 -4 11
-6 -2 -6 -21 -1 -25 -46 -5 -55 6 -3 3 -4 -8 -3 -15 2 -20 10 -18 30 1 15 -3
27 -8 27 -5 0 -4 6 3 14 7 8 15 10 18 6 3 -4 12 -10 20 -13z m-422 -13 c4 -25
-22 -49 -43 -40 -15 5 -21 47 -8 60 14 14 48 1 51 -20z m67 15 c4 -5 3 -22 -1
-37 l-8 -27 -6 35 -7 35 -13 -33 c-15 -40 -25 -35 -15 7 7 31 36 43 50 20z
m-1072 -6 c-7 -2 -21 -2 -30 0 -10 3 -4 5 12 5 17 0 24 -2 18 -5z m1269 -19
c-3 -16 1 -30 9 -35 10 -6 3 -8 -21 -8 -19 1 -27 3 -17 6 20 5 24 49 5 56 -7
3 -3 6 8 6 18 1 20 -3 16 -25z m83 19 c-38 -10 -45 -39 -12 -53 22 -10 22 -10
-3 -7 -46 4 -39 68 7 66 21 -1 23 -3 8 -6z m278 -65 c8 -5 6 -8 -5 -8 -14 0
-18 8 -17 38 2 34 2 34 6 7 3 -16 10 -33 16 -37z m-130 45 c-7 -2 -21 -2 -30
0 -10 3 -4 5 12 5 17 0 24 -2 18 -5z m-8 -23 c18 -8 17 -9 -7 -9 -16 -1 -28 4
-28 9 0 12 8 12 35 0z m-2039 -66 c-3 -9 -6 -29 -6 -45 0 -22 -5 -29 -20 -29
-29 0 -30 43 -2 72 22 21 36 23 28 2z m103 -22 c-13 -5 -11 -42 2 -42 5 0 7
-5 4 -10 -11 -18 -35 10 -33 39 2 37 7 43 23 28 7 -6 9 -13 4 -15z m347 1
c-10 -10 -19 5 -10 18 6 11 8 11 12 0 2 -7 1 -15 -2 -18z m21 5 c-3 -8 -6 -5
-6 6 -1 11 2 17 5 13 3 -3 4 -12 1 -19z m-419 -26 c3 -26 0 -32 -17 -32 -35 0
-35 30 -1 43 12 4 11 6 -3 6 -10 1 -15 6 -12 12 12 19 30 3 33 -29z m542 29
c0 -6 -4 -13 -10 -16 -5 -3 -10 1 -10 9 0 9 5 16 10 16 6 0 10 -4 10 -9z
m-425 -36 c0 -23 -5 -30 -19 -30 -27 0 -33 25 -7 32 12 3 21 10 21 15 0 6 -7
8 -15 4 -8 -3 -15 -1 -15 5 0 6 8 9 18 7 12 -2 17 -13 17 -33z m123 -3 c3 -28
0 -32 -22 -32 -31 0 -36 29 -6 37 11 3 17 9 14 14 -3 5 -10 6 -16 3 -7 -4 -8
-2 -4 5 13 20 31 6 34 -27z m62 7 c0 -12 -11 -32 -25 -45 l-25 -23 0 29 c0 41
10 60 31 60 13 0 19 -7 19 -21z m49 -1 c-2 -13 0 -29 4 -35 6 -9 2 -13 -12
-13 -24 0 -24 0 -12 34 7 17 7 26 -2 30 -7 2 -4 5 6 5 13 1 18 -5 16 -21z
m1098 -10 c-3 -8 -6 -5 -6 6 -1 11 2 17 5 13 3 -3 4 -12 1 -19z m-1280 6 c-3
-3 -12 -4 -19 -1 -8 3 -5 6 6 6 11 1 17 -2 13 -5z m1560 -16 c-3 -8 -6 -5 -6
6 -1 11 2 17 5 13 3 -3 4 -12 1 -19z m30 0 c-3 -8 -6 -5 -6 6 -1 11 2 17 5 13
3 -3 4 -12 1 -19z m69 -27 c-3 -20 -6 -48 -6 -63 0 -20 -5 -28 -17 -28 -11 0
-14 3 -7 8 13 8 25 112 13 112 -5 0 -9 4 -9 10 0 5 7 7 16 3 12 -5 15 -14 10
-42z m-1956 35 c0 -3 -4 -8 -10 -11 -5 -3 -10 -1 -10 4 0 6 5 11 10 11 6 0 10
-2 10 -4z m2024 -11 c-4 -8 -8 -15 -10 -15 -2 0 -4 7 -4 15 0 8 4 15 10 15 5
0 7 -7 4 -15z m-358 -68 c9 -3 8 -4 -3 -3 -13 1 -18 10 -19 36 -1 34 -1 34 3
3 2 -17 11 -34 19 -36z m134 58 c10 0 15 -10 15 -30 0 -23 -5 -31 -22 -33 -21
-3 -23 1 -23 40 0 24 4 39 8 33 4 -5 14 -10 22 -10z m444 -1 c15 -40 -1 -114
-25 -114 -6 0 -3 10 5 22 18 26 20 61 6 89 -6 11 -7 19 -1 19 5 0 12 -7 15
-16z m-1646 -11 c-2 -9 -8 -18 -15 -20 -7 -3 -9 3 -6 16 6 25 26 28 21 4z
m1150 -21 c3 -29 1 -32 -22 -32 -31 0 -36 29 -6 37 25 7 26 20 3 27 -14 4 -14
4 2 3 15 -2 21 -11 23 -35z m426 22 c9 -3 16 -15 16 -25 0 -14 -7 -19 -27 -19
-29 0 -22 -14 12 -23 12 -3 8 -5 -10 -4 -23 2 -31 7 -33 25 -2 13 2 30 8 38
14 16 13 16 34 8z m-84 -79 c-15 -18 -35 -20 -23 -2 4 6 8 15 9 20 1 4 2 10 3
14 0 4 6 2 13 -5 8 -8 8 -15 -2 -27z m-1886 -10 c-4 -9 0 -15 10 -15 12 0 16
-10 16 -36 0 -19 -4 -33 -9 -30 -4 3 -6 17 -3 31 2 15 0 25 -7 25 -6 0 -11
-11 -11 -24 0 -14 -5 -28 -12 -32 -8 -5 -9 4 -5 32 4 21 7 45 7 52 0 6 4 12
10 12 5 0 7 -7 4 -15z m71 -22 c-12 -23 -13 -37 -5 -58 14 -36 12 -44 -5 -21
-20 26 -19 66 1 94 22 32 27 22 9 -15z m71 16 c-15 -9 -16 -13 -5 -21 11 -7
11 -11 2 -15 -7 -2 -14 -14 -14 -26 -1 -17 -3 -14 -8 8 -9 36 3 65 27 65 15
-1 15 -2 -2 -11z m-288 -22 c2 -12 -3 -17 -20 -18 -17 -1 -18 -3 -5 -6 22 -6
22 -26 0 -21 -19 4 -28 30 -19 54 8 20 40 14 44 -9z m54 11 c3 -7 2 -23 0 -36
-3 -16 -10 -22 -25 -20 -28 4 -34 28 -8 35 12 3 21 9 21 14 0 5 -7 5 -17 2
-11 -4 -14 -3 -9 5 9 16 33 15 38 0z m58 3 c0 -5 -7 -11 -15 -15 -21 -8 -19
-34 3 -39 13 -4 11 -5 -5 -6 -19 -1 -23 4 -23 27 0 16 3 32 7 35 9 10 33 8 33
-2z m480 -1 c0 -5 -5 -10 -11 -10 -5 0 -7 5 -4 10 3 6 8 10 11 10 2 0 4 -4 4
-10z m-60 -23 c12 -4 11 -6 -2 -6 -21 -1 -24 -31 -5 -50 10 -10 9 -11 -4 -6
-10 4 -19 19 -21 34 -5 32 1 58 11 44 3 -6 13 -13 21 -16z m-212 -12 c-4 -16
-1 -25 8 -25 7 0 15 12 17 28 4 25 4 25 6 -5 1 -26 -3 -33 -17 -33 -10 0 -21
2 -24 5 -6 6 2 55 9 55 3 0 3 -11 1 -25z m90 -12 c-1 -37 -1 -37 -5 -5 -5 34
-23 45 -23 13 0 -11 -5 -23 -12 -27 -8 -5 -9 -2 -5 10 4 10 7 24 7 32 0 8 9
14 20 14 17 0 20 -6 18 -37z m50 26 c-10 -5 -18 -18 -18 -29 0 -10 8 -21 18
-24 13 -4 13 -4 -3 -3 -35 4 -27 68 9 67 6 0 3 -5 -6 -11z m124 -29 c-2 -12 2
-27 10 -31 9 -6 3 -9 -17 -9 -21 0 -26 3 -16 9 8 6 12 19 9 35 -4 17 -1 25 6
23 6 -2 9 -14 8 -27z m1223 -39 c6 -29 -20 -100 -32 -87 -3 3 0 12 7 21 8 10
11 32 8 60 -6 49 7 53 17 6z m-248 7 c-3 -8 -6 -5 -6 6 -1 11 2 17 5 13 3 -3
4 -12 1 -19z m555 -37 c-4 -46 -6 -51 -27 -51 -15 0 -26 8 -30 20 -8 24 11 60
30 60 8 0 15 7 15 16 0 8 3 13 8 11 4 -3 5 -28 4 -56z m-152 9 c0 -13 -7 -20
-20 -20 -25 0 -26 -17 -2 -23 13 -4 11 -5 -5 -6 -19 -1 -23 4 -23 27 0 33 7
42 32 42 11 0 18 -7 18 -20z m-220 -16 c0 -2 -9 0 -20 6 -11 6 -20 13 -20 16
0 2 9 0 20 -6 11 -6 20 -13 20 -16z m288 9 c-10 -2 -26 -2 -35 0 -10 3 -2 5
17 5 19 0 27 -2 18 -5z m-21 -19 c-3 -3 -12 -4 -19 -1 -8 3 -5 6 6 6 11 1 17
-2 13 -5z m-2030 -36 c-3 -7 -5 -2 -5 12 0 14 2 19 5 13 2 -7 2 -19 0 -25z
m48 -33 c-10 -51 -20 -46 -20 11 0 47 2 52 13 37 8 -11 11 -30 7 -48z m54 26
c-6 -17 -9 -45 -7 -61 3 -17 1 -30 -4 -30 -4 0 -8 10 -8 23 0 13 -5 28 -12 35
-9 9 -9 12 0 12 7 0 12 8 12 18 0 17 20 45 27 38 2 -1 -2 -17 -8 -35z m1638
33 c-3 -3 -12 -4 -19 -1 -8 3 -5 6 6 6 11 1 17 -2 13 -5z m153 -8 c0 -8 -6
-16 -14 -19 -10 -4 -12 0 -9 14 6 22 23 26 23 5z m-1674 -26 c10 0 14 -11 12
-37 -1 -38 -1 -38 -5 -5 -4 34 -23 35 -23 1 0 -10 -3 -19 -8 -19 -4 0 -5 21
-3 48 3 26 6 39 9 30 2 -10 10 -18 18 -18z m-57 -8 c-13 -5 -11 -36 4 -51 10
-11 9 -13 -3 -9 -15 5 -30 53 -22 75 3 9 7 9 17 0 7 -7 9 -13 4 -15z m119 -9
c0 -32 -1 -35 -8 -15 -8 18 -5 52 4 52 2 0 3 -17 4 -37z m322 -18 c0 -3 -4 -4
-9 -1 -5 3 -11 -3 -14 -14 -3 -12 1 -24 11 -30 15 -8 14 -9 -4 -10 -18 0 -23
7 -26 35 -5 41 9 60 28 40 8 -7 14 -16 14 -20z m-263 18 c-17 -4 -17 -6 -2
-23 9 -10 14 -24 10 -29 -8 -14 -35 -14 -35 -1 0 6 3 9 8 9 21 -4 24 2 7 14
-20 16 -13 38 13 36 15 -1 14 -2 -1 -6z m127 1 c19 -7 21 -47 3 -63 -10 -8
-18 -7 -31 2 -14 10 -15 18 -7 40 11 29 12 30 35 21z m76 -35 c0 -22 -5 -32
-20 -36 -11 -3 -20 -12 -20 -20 0 -8 -3 -12 -8 -9 -4 2 -6 25 -4 50 4 41 7 46
28 46 20 0 24 -5 24 -31z m1050 -24 c-13 -16 -16 -87 -4 -106 4 -7 1 -10 -7
-7 -8 3 -14 13 -14 24 0 10 -3 24 -8 31 -4 6 -3 14 3 18 5 3 10 14 10 24 0 18
20 44 28 36 3 -2 -1 -11 -8 -20z m-1307 8 c-7 -2 -19 -2 -25 0 -7 3 -2 5 12 5
14 0 19 -2 13 -5z m117 -3 c0 -5 -4 -10 -10 -10 -5 0 -10 5 -10 10 0 6 5 10
10 10 6 0 10 -4 10 -10z m1260 -26 c7 -38 -11 -94 -30 -94 -11 0 -12 2 -3 8
20 13 29 102 12 114 -12 8 -12 9 1 5 8 -2 17 -17 20 -33z m308 -27 c4 -34 -13
-57 -42 -57 -19 0 -21 5 -18 46 4 42 6 45 31 42 20 -2 27 -9 29 -31z m55 26
c-27 -5 -31 -32 -5 -34 16 -1 16 -2 0 -6 -27 -7 -23 -43 4 -43 12 0 19 -3 15
-6 -3 -4 -16 -4 -29 -1 -21 6 -23 11 -20 52 4 42 6 45 31 44 23 -2 24 -2 4 -6z
m-220 -13 c-25 -10 -31 -46 -10 -53 7 -2 6 -3 -3 -3 -35 3 -23 66 12 65 l23 0
-22 -9z m294 3 c-13 -3 -17 -11 -14 -24 3 -10 1 -19 -4 -19 -5 0 -9 -10 -10
-22 0 -13 -3 -17 -6 -10 -3 7 -2 29 1 48 6 27 11 34 29 33 18 -1 19 -2 4 -6z
m-2007 -58 c-7 -9 -15 -13 -17 -11 -7 7 7 26 19 26 6 0 6 -6 -2 -15z m37 -7
c-3 -8 -6 -5 -6 6 -1 11 2 17 5 13 3 -3 4 -12 1 -19z m27 7 c-4 -8 -8 -15 -10
-15 -2 0 -4 7 -4 15 0 8 4 15 10 15 5 0 7 -7 4 -15z m1576 6 c0 -13 -29 -35
-37 -27 -3 3 -1 6 5 6 7 0 12 7 12 15 0 8 5 15 10 15 6 0 10 -4 10 -9z m-1465
-49 c0 -43 -2 -48 -18 -44 -13 3 -15 7 -7 12 8 5 11 22 8 44 -2 21 0 36 7 36
5 0 10 -21 10 -48z m60 38 c3 -5 1 -10 -4 -10 -6 0 -11 5 -11 10 0 6 2 10 4
10 3 0 8 -4 11 -10z m1545 0 c0 -5 -2 -10 -4 -10 -3 0 -8 5 -11 10 -3 6 -1 10
4 10 6 0 11 -4 11 -10z m-1422 -38 c15 12 16 11 4 -4 -10 -13 -11 -22 -2 -37
13 -26 2 -28 -16 -3 -13 16 -13 16 -14 -2 0 -11 -3 -17 -6 -14 -3 4 -2 28 3
55 6 38 8 42 11 20 3 -25 5 -27 20 -15z m-240 21 c-25 -7 -32 -35 -11 -51 17
-13 17 -14 -2 -10 -38 6 -25 70 14 67 14 -1 14 -2 -1 -6z m346 -8 c-4 -10 0
-15 10 -15 22 0 30 -24 16 -49 -21 -40 -40 -25 -40 29 0 28 4 50 10 50 5 0 7
-7 4 -15z m-232 -30 c3 -30 1 -35 -16 -35 -16 0 -17 3 -8 12 16 16 15 45 0 51
-8 4 -7 6 3 6 12 1 18 -9 21 -34z m60 14 c-25 -10 -29 -27 -7 -35 8 -4 15 -10
15 -15 0 -6 -9 -5 -20 1 -34 18 -18 76 18 63 12 -5 11 -8 -6 -14z m456 4 c-20
-5 -25 -33 -6 -33 7 0 6 -5 -4 -12 -9 -7 -19 -20 -22 -28 -3 -8 -4 -5 -2 8 2
12 -1 22 -7 22 -8 0 -9 3 -1 8 6 4 13 15 17 25 3 9 14 16 24 16 17 -1 17 -2 1
-6z m60 -7 c-7 -8 -15 -12 -17 -11 -5 6 10 25 20 25 5 0 4 -6 -3 -14z m-258
-7 c0 -5 -4 -7 -10 -4 -5 3 -10 2 -10 -4 0 -5 5 -13 10 -16 19 -12 10 -35 -12
-34 -17 1 -19 2 -5 6 21 5 22 19 2 27 -8 3 -12 12 -9 21 7 17 34 21 34 4z
m320 1 c0 -5 -2 -10 -4 -10 -3 0 -8 5 -11 10 -3 6 -1 10 4 10 6 0 11 -4 11
-10z m-193 -11 c16 -16 3 -59 -18 -59 -26 0 -24 31 2 37 21 6 21 7 4 20 -11 7
-14 13 -9 13 6 0 15 -5 21 -11z m403 -45 c0 -41 -2 -45 -22 -42 -32 4 -35 36
-6 64 12 12 24 23 26 23 1 1 2 -20 2 -45z m-276 28 c-7 -4 -14 -18 -16 -32 -3
-23 -4 -22 -9 8 -5 27 -3 32 15 32 13 0 17 -3 10 -8z m63 2 c-3 -3 -12 -4 -19
-1 -8 3 -5 6 6 6 11 1 17 -2 13 -5z m72 -7 c6 10 11 13 11 8 0 -6 -5 -16 -12
-23 -8 -8 -8 -15 2 -27 7 -9 8 -15 2 -15 -6 0 -13 6 -15 13 -4 9 -8 8 -16 -3
-7 -9 -11 -10 -11 -3 0 6 5 15 10 18 7 4 6 14 -1 28 -9 20 -9 21 5 4 14 -18
15 -18 25 0z m-529 -7 c0 -5 -5 -10 -11 -10 -5 0 -7 5 -4 10 3 6 8 10 11 10 2
0 4 -4 4 -10z m464 -42 c6 -4 -2 -7 -19 -7 -16 0 -24 3 -17 6 6 2 13 14 13 26
1 21 2 21 6 2 3 -11 10 -23 17 -27z m274 6 c3 -27 0 -31 -20 -30 -30 1 -38 36
-9 36 25 0 28 17 4 24 -14 4 -14 4 2 3 15 -2 21 -11 23 -33z m59 29 c-15 -4
-18 -12 -15 -34 3 -16 1 -29 -3 -29 -4 0 -9 16 -11 35 -4 32 -2 35 22 34 18
-1 20 -3 7 -6z m400 -15 c-3 -8 -6 -5 -6 6 -1 11 2 17 5 13 3 -3 4 -12 1 -19z
m30 0 c-3 -8 -6 -5 -6 6 -1 11 2 17 5 13 3 -3 4 -12 1 -19z m-349 -11 c2 -12
-3 -17 -17 -17 -12 0 -21 -5 -21 -11 0 -6 7 -9 15 -5 8 3 15 1 15 -4 0 -6 -9
-10 -20 -10 -13 0 -20 7 -20 20 0 13 7 20 20 20 25 0 26 17 3 24 -14 4 -14 4
2 3 11 -1 21 -10 23 -20z m129 7 c-3 -3 -12 -4 -19 -1 -8 3 -5 6 6 6 11 1 17
-2 13 -5z m60 -7 c-8 -7 -17 -19 -20 -27 -3 -9 -6 -5 -6 10 -1 19 4 26 20 27
18 2 19 0 6 -10z m75 -32 c3 -30 1 -35 -17 -35 -15 0 -17 2 -6 9 8 5 12 19 9
35 -3 14 -2 26 2 26 4 0 10 -16 12 -35z m-205 19 c-3 -3 -12 -4 -19 -1 -8 3
-5 6 6 6 11 1 17 -2 13 -5z m78 -4 c-3 -5 -15 -10 -26 -10 -20 0 -26 -15 -9
-23 6 -3 5 -4 -2 -3 -22 5 -14 30 12 37 14 4 26 7 28 8 2 1 0 -3 -3 -9z m72
-12 c-3 -8 -6 -5 -6 6 -1 11 2 17 5 13 3 -3 4 -12 1 -19z m281 10 c6 -7 8 -25
5 -39 -3 -19 -11 -26 -26 -25 -26 1 -34 31 -11 40 14 5 15 4 5 -8 -7 -8 -8
-17 -3 -20 14 -8 22 4 22 32 0 18 -4 23 -16 18 -8 -3 -12 -2 -9 4 8 14 20 13
33 -2z m-1618 -38 c0 -5 -4 -10 -10 -10 -5 0 -10 5 -10 10 0 6 5 10 10 10 6 0
10 -4 10 -10z m57 -42 c-20 -11 -22 -34 -4 -41 7 -4 6 -6 -4 -6 -12 -1 -18 9
-21 34 -5 43 9 60 30 38 14 -14 14 -16 -1 -25z m63 32 c0 -5 -4 -10 -10 -10
-5 0 -10 5 -10 10 0 6 5 10 10 10 6 0 10 -4 10 -10z m1407 -15 c-4 -8 -12 -15
-19 -14 -10 0 -10 2 0 6 6 2 12 12 12 21 0 8 3 13 6 9 4 -3 4 -13 1 -22z m153
5 c0 -5 -4 -10 -10 -10 -5 0 -10 5 -10 10 0 6 5 10 10 10 6 0 10 -4 10 -10z
m-1686 -15 c-4 -8 -7 -15 -9 -15 -2 0 -5 7 -9 15 -3 9 0 15 9 15 9 0 12 -6 9
-15z m306 -15 c-7 -13 -9 -37 -5 -59 5 -27 4 -33 -5 -25 -16 16 -15 81 0 100
18 20 24 10 10 -16z m64 14 c12 -30 6 -72 -14 -95 -24 -29 -26 -18 -3 17 13
20 14 32 5 60 -10 33 0 49 12 18z m68 -25 c3 -19 2 -38 -3 -43 -5 -6 -9 -18
-9 -28 0 -11 -7 -18 -17 -18 -13 0 -14 3 -6 8 18 11 26 92 11 110 -11 13 -10
14 2 10 8 -2 18 -20 22 -39z m-318 5 c-4 -17 -2 -29 7 -35 10 -6 6 -9 -13 -9
-16 0 -28 5 -28 10 0 6 5 10 11 10 7 0 9 10 7 25 -4 17 -1 25 9 25 9 0 12 -7
7 -26z m71 -9 c0 -23 -5 -31 -22 -33 -19 -3 -23 1 -23 26 0 33 8 44 30 40 9
-2 15 -14 15 -33z m64 -12 l-2 -38 -7 35 c-7 35 -9 33 -25 -16 -9 -28 -17 -7
-10 25 5 22 12 31 26 31 16 0 19 -7 18 -37z m241 7 c0 -5 -5 -10 -11 -10 -5 0
-7 5 -4 10 3 6 8 10 11 10 2 0 4 -4 4 -10z m68 -8 c-26 -5 -29 -30 -5 -47 15
-11 17 -15 6 -15 -8 0 -20 5 -27 12 -26 26 -5 72 27 60 15 -6 15 -7 -1 -10z
m112 -20 c1 -27 1 -26 20 8 23 42 26 24 5 -27 -18 -42 -29 -36 -39 20 -5 27
-4 37 3 32 6 -3 11 -18 11 -33z m83 28 c-27 -11 -30 -30 -5 -31 16 -1 16 -2 0
-6 -10 -2 -18 -11 -18 -18 0 -7 8 -16 18 -18 13 -4 11 -5 -5 -6 -20 -1 -23 4
-23 37 0 44 5 52 34 51 20 0 20 -1 -1 -9z m83 -11 c3 -6 2 -15 -4 -21 -7 -7
-7 -19 -2 -34 5 -13 6 -24 1 -24 -5 0 -12 10 -15 23 l-7 22 -10 -24 c-13 -33
-17 -24 -11 27 3 32 8 42 22 42 11 0 22 -5 26 -11z m52 4 c-22 -5 -24 -31 -3
-39 17 -7 20 -40 5 -49 -5 -3 -18 -1 -27 5 -16 11 -16 11 -1 6 28 -8 33 15 7
34 -20 16 -21 20 -10 34 7 9 21 15 30 15 13 -1 13 -2 -1 -6z m85 -11 c-19 -12
-28 -63 -12 -73 10 -6 5 -9 -16 -9 -16 0 -25 4 -19 8 15 10 23 70 10 76 -6 2
3 5 19 5 17 0 25 -3 18 -7z m27 -22 c-13 -24 -4 -63 13 -57 7 2 12 20 12 40 0
40 10 49 20 18 7 -24 -11 -71 -28 -71 -19 0 -37 21 -37 45 0 12 5 26 12 33 18
18 20 15 8 -8z m75 -12 c-4 -18 -12 -40 -17 -48 -7 -11 -8 -8 -4 10 3 14 6 35
6 48 0 12 5 22 11 22 7 0 8 -12 4 -32z m30 -56 c-8 -8 -25 18 -25 38 0 13 1
13 10 0 7 -11 10 -7 12 20 1 31 2 30 5 -9 3 -23 1 -46 -2 -49z m112 66 c-3 -8
-6 -5 -6 6 -1 11 2 17 5 13 3 -3 4 -12 1 -19z m33 2 c0 -5 -5 -10 -11 -10 -5
0 -7 5 -4 10 3 6 8 10 11 10 2 0 4 -4 4 -10z m-762 -17 c-2 -9 -8 -18 -15 -20
-7 -3 -9 3 -6 16 6 25 26 28 21 4z m829 -3 c3 -10 2 -11 -4 -4 -4 6 -15 14
-23 17 -11 5 -9 6 4 4 11 -1 21 -9 23 -17z m-697 0 c0 -5 -4 -10 -10 -10 -5 0
-10 5 -10 10 0 6 5 10 10 10 6 0 10 -4 10 -10z m835 -15 c0 -12 -7 -20 -18
-21 -12 -1 -13 -1 -2 3 21 6 19 30 -2 37 -14 4 -14 4 2 3 13 -2 20 -10 20 -22z
m-282 -2 c-7 -2 -21 -2 -30 0 -10 3 -4 5 12 5 17 0 24 -2 18 -5z m134 -9 c-3
-3 -12 -4 -19 -1 -8 3 -5 6 6 6 11 1 17 -2 13 -5z m-134 -11 c-7 -2 -21 -2
-30 0 -10 3 -4 5 12 5 17 0 24 -2 18 -5z m140 -24 c-6 -6 -19 -9 -29 -6 -16 4
-15 5 4 6 12 0 22 6 22 13 0 6 3 8 7 5 4 -4 2 -12 -4 -18z m138 -12 c-10 -9
-11 -8 -5 6 3 10 9 15 12 12 3 -3 0 -11 -7 -18z m-81 3 c0 -5 -2 -10 -4 -10
-3 0 -8 5 -11 10 -3 6 -1 10 4 10 6 0 11 -4 11 -10z m-960 -49 c0 -22 3 -46 6
-54 4 -11 -1 -13 -21 -9 -15 2 -22 7 -17 11 17 11 25 73 11 82 -11 7 -10 9 4
9 13 0 17 -8 17 -39z m-175 19 c3 -5 -1 -10 -9 -10 -8 0 -18 5 -21 10 -3 6 1
10 9 10 8 0 18 -4 21 -10z m241 -32 c-5 -29 -3 -44 6 -50 8 -5 2 -8 -17 -8
-21 0 -26 3 -16 9 9 6 12 22 9 50 -3 30 0 41 11 41 10 0 12 -9 7 -42z m-176
15 c0 -14 -2 -15 -9 -4 -6 9 -11 10 -15 2 -10 -16 -26 -14 -26 4 0 9 9 15 25
15 17 0 25 -5 25 -17z m70 -16 c0 -7 -7 -22 -15 -33 -14 -18 -14 -17 -8 15 5
26 3 33 -8 29 -8 -3 -14 -14 -13 -26 0 -12 -3 -19 -8 -16 -12 8 -10 38 4 52
13 13 48 -2 48 -21z m175 23 c11 -5 14 -9 8 -9 -7 -1 -13 -11 -14 -23 0 -13
-4 -32 -8 -43 -6 -15 -9 -6 -12 33 -2 28 -2 52 1 51 3 0 14 -4 25 -9z m190
-34 c-16 -25 -17 -46 0 -91 7 -20 6 -20 -9 -1 -21 25 -20 75 0 104 22 32 30
20 9 -12z m75 -37 c0 -15 -9 -37 -20 -50 l-20 -24 16 39 c12 30 13 45 5 63
-15 33 -13 42 4 19 8 -11 15 -32 15 -47z m-191 34 c12 -23 -4 -53 -29 -53 -15
0 -20 7 -20 28 0 44 29 59 49 25z m341 6 c0 -5 -4 -8 -9 -5 -5 3 -11 -1 -15
-9 -3 -8 3 -19 12 -24 16 -10 16 -10 0 -11 -11 0 -18 -8 -18 -20 0 -11 -4 -20
-9 -20 -4 0 -6 11 -3 25 2 15 0 25 -7 25 -6 0 -1 11 11 25 23 26 38 32 38 14z
m-275 -10 c10 -14 -3 -59 -17 -59 -6 0 -17 -8 -24 -17 -12 -17 -13 -17 -14 3
0 48 13 84 31 84 10 0 21 -5 24 -11z m398 -36 c-7 -2 -19 -2 -25 0 -7 3 -2 5
12 5 14 0 19 -2 13 -5z m-70 -10 c-7 -2 -21 -2 -30 0 -10 3 -4 5 12 5 17 0 24
-2 18 -5z m-145 -30 c-2 -9 -8 -18 -15 -20 -7 -3 -9 3 -6 16 6 25 26 28 21 4z
m145 10 c-7 -2 -21 -2 -30 0 -10 3 -4 5 12 5 17 0 24 -2 18 -5z m44 -15 c-3
-8 -6 -5 -6 6 -1 11 2 17 5 13 3 -3 4 -12 1 -19z m60 0 c-3 -8 -6 -5 -6 6 -1
11 2 17 5 13 3 -3 4 -12 1 -19z"/>
<path d="M1663 2415 c-3 -9 -3 -18 0 -21 9 -9 27 6 27 22 0 19 -19 18 -27 -1z"/>
<path d="M1801 2426 c-11 -13 -11 -20 -3 -28 15 -15 24 -5 20 23 -3 21 -4 21
-17 5z"/>
<path d="M1536 2414 c-11 -27 -7 -37 9 -24 16 14 20 40 6 40 -5 0 -12 -7 -15
-16z"/>
<path d="M1078 2234 c-5 -4 -8 -16 -8 -28 0 -14 3 -17 11 -9 6 6 9 19 7 28 -1
9 -6 13 -10 9z"/>
<path d="M827 2215 c-4 -8 -2 -17 2 -20 5 -2 11 4 14 15 6 23 -8 27 -16 5z"/>
<path d="M1990 2220 c-13 -8 -12 -10 3 -10 9 0 17 5 17 10 0 12 -1 12 -20 0z"/>
<path d="M1457 2244 c-11 -11 -8 -44 3 -44 15 0 24 30 13 41 -5 5 -12 6 -16 3z"/>
<path d="M1520 2234 c0 -8 5 -12 10 -9 6 4 8 11 5 16 -9 14 -15 11 -15 -7z"/>
<path d="M1510 2180 c0 -5 4 -10 9 -10 6 0 13 5 16 10 3 6 -1 10 -9 10 -9 0
-16 -4 -16 -10z"/>
<path d="M1586 2241 c-4 -7 -5 -15 -2 -18 9 -9 19 4 14 18 -4 11 -6 11 -12 0z"/>
<path d="M1580 2180 c0 -5 5 -10 10 -10 6 0 10 5 10 10 0 6 -4 10 -10 10 -5 0
-10 -4 -10 -10z"/>
<path d="M1715 2240 c-3 -5 1 -10 9 -10 9 0 16 5 16 10 0 6 -4 10 -9 10 -6 0
-13 -4 -16 -10z"/>
<path d="M1130 2199 c0 -5 5 -7 10 -4 6 3 10 8 10 11 0 2 -4 4 -10 4 -5 0 -10
-5 -10 -11z"/>
<path d="M635 2047 c-4 -10 -5 -21 -1 -24 10 -10 18 4 13 24 -4 17 -4 17 -12
0z"/>
<path d="M1505 2047 c-4 -10 -5 -21 -1 -24 10 -10 18 4 13 24 -4 17 -4 17 -12
0z"/>
<path d="M1830 2039 c0 -24 23 -21 28 4 2 10 -3 17 -12 17 -10 0 -16 -9 -16
-21z"/>
<path d="M1975 2060 c-3 -5 -1 -10 4 -10 6 0 11 5 11 10 0 6 -2 10 -4 10 -3 0
-8 -4 -11 -10z"/>
<path d="M2185 2030 c-3 -5 -1 -10 4 -10 6 0 11 5 11 10 0 6 -2 10 -4 10 -3 0
-8 -4 -11 -10z"/>
<path d="M1145 1690 c-3 -5 -1 -10 4 -10 6 0 11 5 11 10 0 6 -2 10 -4 10 -3 0
-8 -4 -11 -10z"/>
<path d="M1140 1660 c0 -5 5 -10 10 -10 6 0 10 5 10 10 0 6 -4 10 -10 10 -5 0
-10 -4 -10 -10z"/>
<path d="M977 1873 c-10 -9 -8 -33 2 -33 5 0 11 9 14 20 5 20 -3 26 -16 13z"/>
<path d="M1096 1864 c-7 -19 2 -37 15 -29 12 8 12 45 0 45 -5 0 -12 -7 -15
-16z"/>
<path d="M2450 1844 c0 -22 2 -25 15 -14 8 7 15 19 15 26 0 8 -7 14 -15 14
-10 0 -15 -10 -15 -26z"/>
<path d="M555 1850 c-3 -5 -1 -10 4 -10 6 0 11 5 11 10 0 6 -2 10 -4 10 -3 0
-8 -4 -11 -10z"/>
<path d="M670 1869 c0 -5 5 -7 10 -4 6 3 10 8 10 11 0 2 -4 4 -10 4 -5 0 -10
-5 -10 -11z"/>
<path d="M795 1867 c-4 -10 -5 -21 -1 -24 10 -10 18 4 13 24 -4 17 -4 17 -12
0z"/>
<path d="M1040 1870 c0 -5 5 -10 10 -10 6 0 10 5 10 10 0 6 -4 10 -10 10 -5 0
-10 -4 -10 -10z"/>
<path d="M2305 1861 c-6 -11 9 -23 19 -14 9 9 7 23 -3 23 -6 0 -12 -4 -16 -9z"/>
<path d="M2300 1800 c0 -5 4 -10 9 -10 6 0 13 5 16 10 3 6 -1 10 -9 10 -9 0
-16 -4 -16 -10z"/>
<path d="M705 1670 c3 -5 8 -10 11 -10 2 0 4 5 4 10 0 6 -5 10 -11 10 -5 0 -7
-4 -4 -10z"/>
<path d="M481 1694 c0 -11 3 -14 6 -6 3 7 2 16 -1 19 -3 4 -6 -2 -5 -13z"/>
<path d="M1014 1686 c-4 -10 -2 -22 4 -28 8 -8 13 -7 18 6 4 10 2 22 -4 28 -8
8 -13 7 -18 -6z"/>
<path d="M1590 1650 c0 -5 4 -10 9 -10 6 0 13 5 16 10 3 6 -1 10 -9 10 -9 0
-16 -4 -16 -10z"/>
<path d="M2002 1658 c2 -13 8 -23 13 -23 6 0 11 10 13 23 2 15 -2 22 -13 22
-11 0 -15 -7 -13 -22z"/>
<path d="M400 1509 c0 -11 5 -17 10 -14 6 3 10 13 10 21 0 8 -4 14 -10 14 -5
0 -10 -9 -10 -21z"/>
<path d="M1071 1506 c-7 -8 -9 -21 -5 -27 5 -9 10 -5 16 11 10 28 5 36 -11 16z"/>
<path d="M1463 1365 c-67 -29 -85 -144 -29 -192 23 -20 33 -42 35 -80 1 -7 9
-13 19 -14 13 0 12 -2 -5 -9 -19 -8 -23 -17 -23 -55 l0 -45 53 0 52 0 -2 87
c-2 83 0 89 23 108 22 18 26 30 29 88 3 74 -9 98 -59 117 -35 13 -54 12 -93
-5z m55 -46 c-21 -12 -24 -45 -5 -52 7 -4 6 -6 -4 -6 -12 -1 -18 9 -21 34 -4
32 -2 35 22 35 22 -1 23 -2 8 -11z m80 -25 c2 -11 -4 -27 -13 -34 -22 -19 -50
9 -40 39 9 29 49 25 53 -5z m-145 -1 c-7 -2 -19 -2 -25 0 -7 3 -2 5 12 5 14 0
19 -2 13 -5z m55 -176 c2 -11 -3 -17 -15 -17 -15 0 -16 2 -3 10 13 9 13 11 0
21 -13 9 -13 10 0 6 8 -2 16 -11 18 -20z m29 -39 c-3 -8 -6 -5 -6 6 -1 11 2
17 5 13 3 -3 4 -12 1 -19z"/>
<path d="M1556 1301 c-9 -14 5 -42 18 -38 18 6 20 47 2 47 -8 0 -17 -4 -20 -9z"/>
<path d="M873 1505 c-3 -9 -3 -18 0 -21 9 -9 27 6 27 22 0 19 -19 18 -27 -1z"/>
<path d="M1984 1475 c-9 -23 14 -45 26 -25 5 8 8 19 7 24 -6 17 -27 18 -33 1z"/>
<path d="M448 1354 c-5 -4 -8 -16 -8 -28 0 -14 3 -17 11 -9 6 6 9 19 7 28 -1
9 -6 13 -10 9z"/>
<path d="M500 1319 c0 -5 5 -7 10 -4 6 3 10 8 10 11 0 2 -4 4 -10 4 -5 0 -10
-5 -10 -11z"/>
<path d="M615 1310 c3 -5 8 -10 11 -10 2 0 4 5 4 10 0 6 -5 10 -11 10 -5 0 -7
-4 -4 -10z"/>
<path d="M735 1310 c-3 -5 -1 -10 4 -10 6 0 11 5 11 10 0 6 -2 10 -4 10 -3 0
-8 -4 -11 -10z"/>
<path d="M797 1319 c-3 -13 -1 -19 6 -16 15 5 22 37 9 37 -5 0 -12 -9 -15 -21z"/>
<path d="M2187 1283 c-13 -12 -7 -43 8 -43 9 0 15 9 15 25 0 24 -10 32 -23 18z"/>
<path d="M2110 1250 c0 -5 7 -10 15 -10 8 0 15 5 15 10 0 6 -7 10 -15 10 -8 0
-15 -4 -15 -10z"/>
<path d="M2550 1260 c0 -5 5 -10 10 -10 6 0 10 5 10 10 0 6 -4 10 -10 10 -5 0
-10 -4 -10 -10z"/>
<path d="M480 1139 c0 -5 5 -7 10 -4 6 3 10 8 10 11 0 2 -4 4 -10 4 -5 0 -10
-5 -10 -11z"/>
<path d="M2527 1057 c-3 -8 -1 -20 4 -28 8 -12 10 -12 19 1 5 8 10 21 10 28 0
16 -27 16 -33 -1z"/>
<path d="M2380 1070 c0 -5 7 -10 15 -10 8 0 15 5 15 10 0 6 -7 10 -15 10 -8 0
-15 -4 -15 -10z"/>
<path d="M880 950 c0 -13 5 -20 13 -17 6 2 12 10 12 17 0 7 -6 15 -12 18 -8 2
-13 -5 -13 -18z"/>
<path d="M950 963 c0 -6 -3 -18 -6 -27 -3 -9 -2 -16 4 -16 15 0 24 32 12 44
-7 7 -10 7 -10 -1z"/>
<path d="M2360 864 c0 -23 4 -34 12 -32 33 11 36 68 3 68 -11 0 -15 -10 -15
-36z"/>
<path d="M996 773 c-9 -10 -7 -43 3 -43 11 0 21 39 11 45 -4 2 -10 2 -14 -2z"/>
<path d="M1180 730 c0 -5 5 -10 10 -10 6 0 10 5 10 10 0 6 -4 10 -10 10 -5 0
-10 -4 -10 -10z"/>
<path d="M1577 733 c-4 -3 -7 -15 -7 -25 0 -26 24 -17 28 10 3 21 -8 29 -21
15z"/>
<path d="M1640 690 c0 -5 4 -10 9 -10 6 0 13 5 16 10 3 6 -1 10 -9 10 -9 0
-16 -4 -16 -10z"/>
<path d="M845 590 c-8 -13 4 -32 16 -25 12 8 12 35 0 35 -6 0 -13 -4 -16 -10z"/>
<path d="M1490 555 c0 -8 5 -15 10 -15 6 0 10 7 10 15 0 8 -4 15 -10 15 -5 0
-10 -7 -10 -15z"/>
<path d="M1277 373 c-11 -10 -8 -43 3 -43 15 0 24 30 13 41 -5 5 -12 6 -16 2z"/>
<path d="M1346 363 c-9 -10 -7 -43 3 -43 11 0 21 39 11 45 -4 2 -10 2 -14 -2z"/>
</g>
</svg>
