<?xml version="1.0" standalone="no"?>
<!DOCTYPE svg PUBLIC "-//W3C//DTD SVG 20010904//EN"
 "http://www.w3.org/TR/2001/REC-SVG-20010904/DTD/svg10.dtd">
<svg version="1.0" xmlns="http://www.w3.org/2000/svg"
 width="240.000000pt" height="240.000000pt" viewBox="0 0 240.000000 240.000000"
 preserveAspectRatio="xMidYMid meet">

<g transform="translate(0.000000,240.000000) scale(0.100000,-0.100000)"
fill="#000000" stroke="none">
<path d="M1157 2366 c-55 -49 -172 -126 -247 -163 -137 -67 -244 -90 -457
-100 l-153 -6 0 -614 c0 -667 3 -706 57 -820 79 -167 194 -264 646 -541 l197
-121 198 121 c451 277 566 374 645 541 54 114 57 153 57 820 l0 614 -152 6
c-210 10 -315 32 -453 97 -69 33 -179 105 -247 161 -26 21 -48 39 -50 39 -2
-1 -20 -16 -41 -34z m115 -148 c188 -135 367 -197 621 -214 l107 -7 0 -561 c0
-620 -3 -647 -61 -757 -67 -125 -180 -218 -522 -427 l-217 -134 -167 103
c-388 237 -514 340 -577 473 -19 39 -39 98 -45 130 -7 38 -11 263 -11 617 l0
556 110 8 c139 9 262 34 366 74 87 33 219 109 282 160 20 17 38 30 39 31 1 0
35 -24 75 -52z"/>
<path d="M1364 1269 l-259 -291 -151 159 -152 158 -31 -29 c-17 -17 -31 -33
-31 -38 0 -12 349 -383 361 -383 5 0 142 146 304 325 l294 325 -32 33 c-17 17
-34 32 -38 32 -4 0 -123 -131 -265 -291z"/>
</g>
</svg>
