<?xml version="1.0" encoding="UTF-8"?>
<!DOCTYPE svg PUBLIC "-//W3C//DTD SVG 1.1//EN" "http://www.w3.org/Graphics/SVG/1.1/DTD/svg11.dtd">
<svg xmlns="http://www.w3.org/2000/svg" version="1.1" width="240px" height="240px" style="shape-rendering:geometricPrecision; text-rendering:geometricPrecision; image-rendering:optimizeQuality; fill-rule:evenodd; clip-rule:evenodd" xmlns:xlink="http://www.w3.org/1999/xlink">
<g><path style="opacity:0.997" fill="#030303" d="M 117.5,-0.5 C 118.833,-0.5 120.167,-0.5 121.5,-0.5C 145.879,22.1844 174.879,32.1844 208.5,29.5C 209.667,72.4961 209.833,115.496 209,158.5C 205.439,175.722 196.606,189.555 182.5,200C 162.442,213.689 142.109,226.856 121.5,239.5C 120.167,239.5 118.833,239.5 117.5,239.5C 96.891,226.856 76.5576,213.689 56.5,200C 42.3941,189.555 33.5608,175.722 30,158.5C 29.1667,115.496 29.3334,72.4961 30.5,29.5C 64.121,32.1844 93.121,22.1844 117.5,-0.5 Z M 118.5,13.5 C 130.945,22.7251 144.611,29.8918 159.5,35C 172.594,38.6086 185.927,40.1086 199.5,39.5C 199.667,74.8349 199.5,110.168 199,145.5C 198.663,165.159 190.496,180.659 174.5,192C 156.832,204.489 138.499,215.989 119.5,226.5C 100.501,215.989 82.1677,204.489 64.5,192C 48.5088,180.662 40.3421,165.162 40,145.5C 39.5,110.168 39.3333,74.8349 39.5,39.5C 69.4332,41.1884 95.7666,32.5217 118.5,13.5 Z"/></g>
<g><path style="opacity:0.992" fill="#050505" d="M 161.5,82.5 C 165.747,84.2301 168.247,87.2301 169,91.5C 149.323,113.342 129.489,135.009 109.5,156.5C 96.4594,143.794 84.1261,130.46 72.5,116.5C 74.5481,113.257 77.2148,111.09 80.5,110C 90.6969,119.863 100.53,130.029 110,140.5C 127.375,121.296 144.541,101.962 161.5,82.5 Z"/></g>
</svg>
