<?xml version="1.0" standalone="no"?>
<!DOCTYPE svg PUBLIC "-//W3C//DTD SVG 20010904//EN"
 "http://www.w3.org/TR/2001/REC-SVG-20010904/DTD/svg10.dtd">
<svg version="1.0" xmlns="http://www.w3.org/2000/svg"
 width="240.000000pt" height="240.000000pt" viewBox="0 0 240.000000 240.000000"
 preserveAspectRatio="xMidYMid meet">

<g transform="translate(0.000000,240.000000) scale(0.100000,-0.100000)"
fill="#000000" stroke="none">
<path d="M1052 2380 c-109 -29 -187 -74 -272 -160 -87 -86 -131 -163 -160
-276 -17 -66 -20 -111 -20 -311 l0 -233 -150 0 -150 0 0 -700 0 -700 900 0
900 0 0 700 0 700 -150 0 -150 0 0 233 c0 263 -11 335 -72 450 -42 81 -164
203 -245 245 -132 69 -291 88 -431 52z m250 -91 c187 -39 348 -200 387 -387 6
-30 11 -152 11 -277 l0 -225 -500 0 -500 0 0 225 c0 125 5 247 11 277 38 182
191 340 372 384 66 16 152 17 219 3z m698 -1589 l0 -600 -800 0 -800 0 0 600
0 600 800 0 800 0 0 -600z"/>
</g>
</svg>
