<?xml version="1.0" standalone="no"?>
<!DOCTYPE svg PUBLIC "-//W3C//DTD SVG 20010904//EN"
 "http://www.w3.org/TR/2001/REC-SVG-20010904/DTD/svg10.dtd">
<svg version="1.0" xmlns="http://www.w3.org/2000/svg"
 width="240.000000pt" height="240.000000pt" viewBox="0 0 240.000000 240.000000"
 preserveAspectRatio="xMidYMid meet">

<g transform="translate(0.000000,240.000000) scale(0.100000,-0.100000)"
fill="#000000" stroke="none">
<path d="M950 1789 c-394 -37 -653 -145 -726 -304 -23 -49 -24 -58 -24 -325 0
-159 4 -291 10 -312 43 -152 269 -267 642 -325 158 -24 538 -24 696 0 376 59
601 173 642 328 7 26 10 141 8 322 -3 321 -4 324 -91 404 -177 163 -687 257
-1157 212z m600 -204 c511 -78 602 -254 185 -360 -172 -44 -313 -59 -540 -59
-289 0 -525 38 -687 111 -191 85 -121 203 162 273 71 18 242 45 340 54 93 8
439 -4 540 -19z m-925 -548 c185 -58 481 -85 728 -68 255 18 415 53 575 126
l72 34 0 -111 0 -111 -44 -43 c-127 -121 -591 -200 -957 -164 -262 27 -478 91
-555 164 l-44 43 0 111 0 111 73 -34 c39 -18 108 -44 152 -58z"/>
</g>
</svg>
