<?xml version="1.0" standalone="no"?>
<!DOCTYPE svg PUBLIC "-//W3C//DTD SVG 20010904//EN"
 "http://www.w3.org/TR/2001/REC-SVG-20010904/DTD/svg10.dtd">
<svg version="1.0" xmlns="http://www.w3.org/2000/svg"
 width="307.000000pt" height="193.000000pt" viewBox="0 0 307.000000 193.000000"
 preserveAspectRatio="xMidYMid meet">

<g transform="translate(0.000000,193.000000) scale(0.100000,-0.100000)"
fill="#000000" stroke="none">
<path d="M51 1856 c-52 -29 -50 1 -51 -919 0 -932 -2 -899 55 -925 38 -17
2922 -17 2960 0 57 26 55 -6 55 922 0 642 -3 862 -12 881 -26 58 60 55 -1525
55 -1191 -1 -1462 -3 -1482 -14z m2837 -84 c-1 -5 -307 -304 -678 -665 l-674
-657 -66 63 c-614 598 -1286 1253 -1288 1259 -2 5 607 8 1353 8 746 0 1355 -4
1353 -8z m-2225 -590 c919 -896 829 -812 872 -812 34 0 48 10 159 118 66 65
379 369 695 677 315 308 577 561 582 563 5 2 9 -355 9 -817 l0 -821 -1445 0
-1445 0 0 820 c0 451 3 820 6 820 3 0 259 -246 567 -548z"/>
<path d="M1570 1724 c-59 -11 -151 -49 -201 -84 -66 -45 -140 -139 -169 -217
-77 -202 2 -449 178 -562 158 -101 380 -102 530 -2 l43 28 -24 28 -23 28 -45
-26 c-163 -95 -380 -68 -502 61 -207 222 -113 574 177 657 86 25 213 17 288
-17 119 -55 196 -160 205 -282 9 -113 -33 -194 -119 -231 l-38 -15 -2 192 -3
193 -37 3 c-36 3 -38 2 -38 -28 l0 -31 -32 24 c-89 66 -200 62 -271 -9 -52
-52 -70 -107 -65 -196 4 -86 27 -138 82 -182 35 -29 43 -31 121 -31 79 0 85 2
124 33 l41 33 0 -41 c0 -37 2 -40 23 -36 12 3 40 8 61 11 93 15 169 75 209
165 29 63 28 185 -1 260 -44 112 -141 206 -261 251 -55 20 -196 33 -251 23z
m146 -333 c92 -56 83 -241 -14 -287 -62 -29 -141 -6 -179 53 -27 41 -25 147 4
194 13 20 33 41 45 47 37 17 110 14 144 -7z"/>
</g>
</svg>
