<?xml version="1.0" standalone="no"?>
<!DOCTYPE svg PUBLIC "-//W3C//DTD SVG 20010904//EN"
 "http://www.w3.org/TR/2001/REC-SVG-20010904/DTD/svg10.dtd">
<svg version="1.0" xmlns="http://www.w3.org/2000/svg"
 width="240.000000pt" height="240.000000pt" viewBox="0 0 240.000000 240.000000"
 preserveAspectRatio="xMidYMid meet">

<g transform="translate(0.000000,240.000000) scale(0.100000,-0.100000)"
fill="#000000" stroke="none">
<path d="M1467 2290 c-307 -56 -550 -275 -638 -577 -24 -82 -35 -246 -21 -326
l9 -58 -406 -362 -406 -363 -3 -252 -2 -252 300 0 300 0 0 100 0 100 100 0
100 0 0 100 0 100 100 0 101 0 150 126 151 126 86 -23 c114 -31 311 -33 412
-5 288 83 493 288 576 576 26 92 26 308 0 400 -82 284 -284 489 -563 571 -77
23 -269 33 -346 19z m270 -105 c50 -9 112 -31 173 -61 79 -39 110 -62 181
-133 71 -71 94 -102 133 -181 101 -206 101 -414 0 -620 -39 -79 -62 -110 -133
-181 -71 -71 -102 -94 -181 -133 -183 -90 -385 -99 -568 -27 l-54 21 -161
-135 -162 -135 -132 0 -133 0 0 -100 0 -100 -100 0 -100 0 0 -100 0 -100 -200
0 -200 0 0 178 0 178 381 339 c209 187 396 354 414 370 l34 30 -14 70 c-31
153 -11 298 61 445 39 79 62 110 133 181 71 71 102 94 181 133 147 72 286 91
447 61z"/>
<path d="M1710 1878 c-99 -53 -138 -173 -88 -268 53 -99 173 -138 268 -88 99
53 138 173 88 268 -53 99 -173 138 -268 88z m139 -92 c67 -35 65 -143 -4 -174
-91 -41 -179 51 -131 137 26 47 84 63 135 37z"/>
<path d="M555 754 l-350 -315 -3 -70 -3 -70 293 262 c161 145 336 301 388 348
52 47 97 87 99 88 6 4 -61 73 -68 72 -4 0 -163 -142 -356 -315z"/>
</g>
</svg>
