<?xml version="1.0" standalone="no"?>
<!DOCTYPE svg PUBLIC "-//W3C//DTD SVG 20010904//EN"
 "http://www.w3.org/TR/2001/REC-SVG-20010904/DTD/svg10.dtd">
<svg version="1.0" xmlns="http://www.w3.org/2000/svg"
 width="240.000000pt" height="240.000000pt" viewBox="0 0 240.000000 240.000000"
 preserveAspectRatio="xMidYMid meet">

<g transform="translate(0.000000,240.000000) scale(0.100000,-0.100000)"
fill="#000000" stroke="none">
<path d="M1008 2384 c-167 -25 -375 -112 -511 -212 -143 -105 -270 -250 -351
-402 l-46 -85 0 108 0 107 -50 0 -50 0 0 -200 0 -200 200 0 200 0 0 50 0 50
-111 0 c-126 0 -122 -6 -71 95 98 196 290 388 487 487 71 36 208 83 290 99 39
8 130 14 205 14 150 0 234 -13 360 -58 164 -57 292 -137 416 -261 190 -190
297 -424 320 -695 l7 -81 48 0 49 0 0 43 c0 77 -29 237 -60 329 -189 563 -747
904 -1332 812z"/>
<path d="M1069 1873 c-6 -15 -20 -52 -31 -81 -31 -83 -76 -93 -183 -40 l-65
32 -87 -87 -87 -87 32 -65 c34 -69 40 -120 20 -148 -7 -10 -47 -30 -88 -45
l-75 -28 0 -123 0 -124 75 -28 c41 -16 81 -37 88 -46 20 -28 14 -79 -20 -148
l-32 -65 87 -87 87 -87 65 32 c69 34 120 40 148 20 10 -7 30 -47 45 -88 l28
-75 123 0 124 0 28 75 c16 41 37 81 46 88 28 20 79 14 148 -20 l65 -32 87 87
87 87 -32 65 c-34 69 -40 120 -19 148 6 9 46 30 87 46 l75 28 0 124 0 123 -75
28 c-41 15 -81 35 -87 45 -21 28 -15 79 19 148 l32 65 -87 87 -87 87 -65 -32
c-69 -34 -120 -40 -148 -19 -9 6 -30 46 -46 87 l-28 75 -122 3 -121 3 -11 -28z
m212 -140 c26 -53 43 -73 74 -90 50 -28 117 -30 183 -4 l49 20 36 -37 36 -37
-20 -45 c-28 -62 -27 -129 3 -182 18 -34 36 -50 91 -77 l67 -34 0 -47 0 -47
-67 -34 c-55 -27 -73 -43 -92 -77 -29 -54 -30 -121 -2 -182 l20 -45 -36 -37
-36 -37 -49 20 c-124 48 -223 6 -270 -116 -16 -40 -16 -40 -68 -40 -52 0 -52
0 -68 40 -47 122 -146 164 -270 116 l-49 -20 -36 37 -36 37 19 44 c27 59 26
135 -3 186 -17 31 -37 48 -89 74 l-68 34 0 47 0 47 68 34 c54 27 72 43 91 77
29 54 30 121 2 182 l-20 45 36 37 36 37 49 -20 c66 -26 133 -24 183 4 31 17
48 37 74 90 l34 67 47 0 47 0 34 -67z"/>
<path d="M1130 1441 c-109 -33 -180 -128 -180 -241 0 -131 94 -234 225 -247
196 -20 336 192 241 365 -33 59 -76 96 -137 117 -44 16 -108 18 -149 6z m140
-113 c54 -37 75 -73 75 -128 0 -55 -21 -91 -75 -127 -91 -62 -220 13 -220 127
0 114 129 189 220 128z"/>
<path d="M0 1158 c0 -78 29 -238 60 -330 188 -561 741 -901 1323 -813 365 55
697 289 871 615 l46 85 0 -107 0 -108 50 0 50 0 0 200 0 200 -200 0 -200 0 0
-50 0 -50 111 0 c126 0 122 6 71 -95 -98 -196 -290 -388 -487 -487 -71 -36
-208 -83 -290 -99 -90 -18 -320 -18 -410 0 -217 43 -414 148 -571 305 -190
190 -297 424 -320 695 l-7 81 -48 0 -49 0 0 -42z"/>
</g>
</svg>
