<?xml version="1.0" standalone="no"?>
<!DOCTYPE svg PUBLIC "-//W3C//DTD SVG 20010904//EN"
 "http://www.w3.org/TR/2001/REC-SVG-20010904/DTD/svg10.dtd">
<svg version="1.0" xmlns="http://www.w3.org/2000/svg"
 width="240.000000pt" height="240.000000pt" viewBox="0 0 240.000000 240.000000"
 preserveAspectRatio="xMidYMid meet">

<g transform="translate(0.000000,240.000000) scale(0.100000,-0.100000)"
fill="#000000" stroke="none">
<path d="M1004 2153 l-200 -248 148 -3 148 -3 0 -386 0 -386 48 -63 c26 -35
49 -63 52 -63 3 0 26 29 53 64 l47 64 0 385 0 385 148 3 148 3 -178 225 c-99
124 -187 235 -196 248 -17 23 -17 23 -218 -225z"/>
<path d="M297 1565 c-158 -29 -289 -54 -291 -56 -2 -2 51 -134 117 -292 108
-256 123 -286 135 -270 7 10 41 69 74 130 l61 113 36 -22 c220 -131 417 -334
518 -532 19 -37 36 -66 37 -65 2 2 25 57 51 123 l47 119 -49 70 c-99 146 -283
318 -465 434 l-77 49 28 49 c14 28 46 85 70 128 41 74 42 77 19 76 -13 -1
-152 -25 -311 -54z"/>
<path d="M1811 1543 c24 -43 55 -100 70 -127 l27 -49 -121 -80 c-164 -109
-345 -288 -444 -439 -144 -220 -222 -464 -240 -746 l-6 -102 100 0 100 0 7
103 c31 451 264 825 667 1065 l36 22 61 -113 c33 -61 67 -120 74 -130 12 -16
27 14 135 270 103 246 118 289 104 295 -16 7 -580 108 -601 108 -6 0 8 -35 31
-77z"/>
</g>
</svg>
